<svg width="80" height="80" viewBox="0 0 80 80" fill="none" xmlns="http://www.w3.org/2000/svg">
<path d="M55 38.7969V5.625C54.9987 4.46507 54.5374 3.35302 53.7172 2.53282C52.897 1.71263 51.7849 1.25128 50.625 1.25H14.375C13.2151 1.25128 12.103 1.71263 11.2828 2.53282C10.4626 3.35302 10.0013 4.46507 10 5.625V74.375C10.0013 75.5349 10.4626 76.647 11.2828 77.4672C12.103 78.2874 13.2151 78.7487 14.375 78.75H50.625C51.7849 78.7487 52.897 78.2874 53.7172 77.4672C54.5374 76.647 54.9987 75.5349 55 74.375V71.2031C59.0813 70.8878 62.8933 69.044 65.6741 66.04C68.4549 63.0361 69.9996 59.0934 69.9996 55C69.9996 50.9066 68.4549 46.9639 65.6741 43.96C62.8933 40.956 59.0813 39.1122 55 38.7969ZM39.6484 3.75L39.0234 6.25H25.9766L25.3516 3.75H39.6484ZM52.5 74.375C52.4996 74.8722 52.3019 75.3488 51.9504 75.7004C51.5988 76.0519 51.1222 76.2496 50.625 76.25H14.375C13.8778 76.2496 13.4012 76.0519 13.0496 75.7004C12.6981 75.3488 12.5004 74.8722 12.5 74.375V5.625C12.5004 5.12785 12.6981 4.65117 13.0496 4.29963C13.4012 3.94809 13.8778 3.75041 14.375 3.75H22.7734L23.7875 7.80312C23.8551 8.07355 24.0111 8.31362 24.2308 8.48518C24.4505 8.65675 24.7213 8.74996 25 8.75H40C40.2787 8.74996 40.5495 8.65675 40.7692 8.48518C40.9889 8.31362 41.1449 8.07355 41.2125 7.80312L42.2266 3.75H50.625C51.1222 3.75041 51.5988 3.94809 51.9504 4.29963C52.3019 4.65117 52.4996 5.12785 52.5 5.625V38.7969C48.4187 39.1122 44.6067 40.956 41.8259 43.96C39.0451 46.9639 37.5004 50.9066 37.5004 55C37.5004 59.0934 39.0451 63.0361 41.8259 66.04C44.6067 69.044 48.4187 70.8878 52.5 71.2031V74.375ZM53.75 68.75C51.0305 68.75 48.3721 67.9436 46.1109 66.4327C43.8497 64.9218 42.0874 62.7744 41.0467 60.2619C40.006 57.7494 39.7337 54.9847 40.2642 52.3175C40.7947 49.6503 42.1043 47.2003 44.0273 45.2773C45.9503 43.3543 48.4003 42.0447 51.0675 41.5142C53.7347 40.9837 56.4994 41.256 59.0119 42.2967C61.5244 43.3374 63.6718 45.0997 65.1827 47.3609C66.6936 49.6221 67.5 52.2805 67.5 55C67.4959 58.6455 66.0459 62.1404 63.4682 64.7182C60.8904 67.2959 57.3955 68.7459 53.75 68.75Z" fill="url(#paint0_radial)"/>
<path d="M63.3839 50.3661C63.2679 50.2501 63.1301 50.158 62.9784 50.0952C62.8267 50.0323 62.6642 50 62.5 50C62.3359 50 62.1733 50.0323 62.0217 50.0952C61.87 50.158 61.7322 50.2501 61.6161 50.3661L52.5 59.4824L48.3839 55.3661C48.1495 55.1317 47.8316 55 47.5 55C47.1685 55 46.8506 55.1317 46.6161 55.3661C46.3817 55.6006 46.25 55.9185 46.25 56.25C46.25 56.5816 46.3817 56.8995 46.6161 57.1339L51.6161 62.1339C51.7322 62.25 51.87 62.3421 52.0217 62.4049C52.1733 62.4677 52.3359 62.5001 52.5 62.5001C52.6642 62.5001 52.8267 62.4677 52.9784 62.4049C53.1301 62.3421 53.2679 62.25 53.3839 62.1339L63.3839 52.134C63.5 52.0179 63.5921 51.8801 63.6549 51.7284C63.7177 51.5768 63.7501 51.4142 63.7501 51.25C63.7501 51.0859 63.7177 50.9233 63.6549 50.7717C63.5921 50.62 63.5 50.4822 63.3839 50.3661Z" fill="url(#paint1_radial)"/>
<defs>
<radialGradient id="paint0_radial" cx="0" cy="0" r="1" gradientUnits="userSpaceOnUse" gradientTransform="translate(39.9998 40) rotate(-51.7932) scale(246.885 311.86)">
<stop stop-color="#F74874"/>
<stop offset="0.536905" stop-color="#7E65BF"/>
</radialGradient>
<radialGradient id="paint1_radial" cx="0" cy="0" r="1" gradientUnits="userSpaceOnUse" gradientTransform="translate(55 56.25) rotate(-35.0902) scale(54.4306 66.5448)">
<stop stop-color="#F74874"/>
<stop offset="0.536905" stop-color="#7E65BF"/>
</radialGradient>
</defs>
</svg>
