<svg width="80" height="80" viewBox="0 0 80 80" fill="none" xmlns="http://www.w3.org/2000/svg">
<path d="M40 72.5H32.5C32.1685 72.5 31.8505 72.6317 31.6161 72.8661C31.3817 73.1005 31.25 73.4185 31.25 73.75C31.25 74.0815 31.3817 74.3995 31.6161 74.6339C31.8505 74.8683 32.1685 75 32.5 75H40C40.3315 75 40.6495 74.8683 40.8839 74.6339C41.1183 74.3995 41.25 74.0815 41.25 73.75C41.25 73.4185 41.1183 73.1005 40.8839 72.8661C40.6495 72.6317 40.3315 72.5 40 72.5Z" fill="url(#paint0_radial)"/>
<path d="M33.75 45H38.75C39.4128 44.9992 40.0482 44.7356 40.5169 44.2669C40.9856 43.7982 41.2492 43.1628 41.25 42.5V37.5C41.2492 36.8372 40.9856 36.2018 40.5169 35.7331C40.0482 35.2644 39.4128 35.0008 38.75 35H33.75C33.0872 35.0008 32.4518 35.2644 31.9831 35.7331C31.5144 36.2018 31.2508 36.8372 31.25 37.5V42.5C31.2508 43.1628 31.5144 43.7982 31.9831 44.2669C32.4518 44.7356 33.0872 44.9992 33.75 45ZM33.75 37.5H38.75L38.7516 42.5H33.75V37.5Z" fill="url(#paint1_radial)"/>
<path d="M26.25 35H21.25C20.5872 35.0008 19.9518 35.2644 19.4831 35.7331C19.0144 36.2018 18.7508 36.8372 18.75 37.5V42.5C18.7508 43.1628 19.0144 43.7982 19.4831 44.2669C19.9518 44.7356 20.5872 44.9992 21.25 45H26.25C26.9128 44.9992 27.5482 44.7356 28.0169 44.2669C28.4856 43.7982 28.7492 43.1628 28.75 42.5V37.5C28.7492 36.8372 28.4856 36.2018 28.0169 35.7331C27.5482 35.2644 26.9128 35.0008 26.25 35ZM26.25 42.5H21.25V37.5H26.25L26.2516 42.5H26.25Z" fill="url(#paint2_radial)"/>
<path d="M33.75 32.5H38.75C39.4128 32.4992 40.0482 32.2356 40.5169 31.7669C40.9856 31.2982 41.2492 30.6628 41.25 30V25C41.2492 24.3372 40.9856 23.7018 40.5169 23.2331C40.0482 22.7644 39.4128 22.5008 38.75 22.5H33.75C33.0872 22.5008 32.4518 22.7644 31.9831 23.2331C31.5144 23.7018 31.2508 24.3372 31.25 25V30C31.2508 30.6628 31.5144 31.2982 31.9831 31.7669C32.4518 32.2356 33.0872 32.4992 33.75 32.5ZM33.75 25H38.75L38.7516 30H33.75V25Z" fill="url(#paint3_radial)"/>
<path d="M26.25 22.5H21.25C20.5872 22.5008 19.9518 22.7644 19.4831 23.2331C19.0144 23.7018 18.7508 24.3372 18.75 25V30C18.7508 30.6628 19.0144 31.2982 19.4831 31.7669C19.9518 32.2356 20.5872 32.4992 21.25 32.5H26.25C26.9128 32.4992 27.5482 32.2356 28.0169 31.7669C28.4856 31.2982 28.7492 30.6628 28.75 30V25C28.7492 24.3372 28.4856 23.7018 28.0169 23.2331C27.5482 22.7644 26.9128 22.5008 26.25 22.5ZM26.25 30H21.25V25H26.25L26.2516 30H26.25Z" fill="url(#paint4_radial)"/>
<path d="M46.25 32.5H51.25C51.9128 32.4992 52.5482 32.2356 53.0169 31.7669C53.4856 31.2982 53.7492 30.6628 53.75 30V25C53.7492 24.3372 53.4856 23.7018 53.0169 23.2331C52.5482 22.7644 51.9128 22.5008 51.25 22.5H46.25C45.5872 22.5008 44.9518 22.7644 44.4831 23.2331C44.0144 23.7018 43.7508 24.3372 43.75 25V30C43.7508 30.6628 44.0144 31.2982 44.4831 31.7669C44.9518 32.2356 45.5872 32.4992 46.25 32.5ZM46.25 25H51.25L51.2516 30H46.25V25Z" fill="url(#paint5_radial)"/>
<path d="M33.75 20H38.75C39.4128 19.9992 40.0482 19.7356 40.5169 19.2669C40.9856 18.7982 41.2492 18.1628 41.25 17.5V12.5C41.2492 11.8372 40.9856 11.2018 40.5169 10.7331C40.0482 10.2644 39.4128 10.0008 38.75 10H33.75C33.0872 10.0008 32.4518 10.2644 31.9831 10.7331C31.5144 11.2018 31.2508 11.8372 31.25 12.5V17.5C31.2508 18.1628 31.5144 18.7982 31.9831 19.2669C32.4518 19.7356 33.0872 19.9992 33.75 20ZM33.75 12.5H38.75L38.7516 17.5H33.75V12.5Z" fill="url(#paint6_radial)"/>
<path d="M26.25 10H21.25C20.5872 10.0008 19.9518 10.2644 19.4831 10.7331C19.0144 11.2018 18.7508 11.8372 18.75 12.5V17.5C18.7508 18.1628 19.0144 18.7982 19.4831 19.2669C19.9518 19.7356 20.5872 19.9992 21.25 20H26.25C26.9128 19.9992 27.5482 19.7356 28.0169 19.2669C28.4856 18.7982 28.7492 18.1628 28.75 17.5V12.5C28.7492 11.8372 28.4856 11.2018 28.0169 10.7331C27.5482 10.2644 26.9128 10.0008 26.25 10ZM26.25 17.5H21.25V12.5H26.25L26.2516 17.5H26.25Z" fill="url(#paint7_radial)"/>
<path d="M46.25 20H51.25C51.9128 19.9992 52.5482 19.7356 53.0169 19.2669C53.4856 18.7982 53.7492 18.1628 53.75 17.5V12.5C53.7492 11.8372 53.4856 11.2018 53.0169 10.7331C52.5482 10.2644 51.9128 10.0008 51.25 10H46.25C45.5872 10.0008 44.9518 10.2644 44.4831 10.7331C44.0144 11.2018 43.7508 11.8372 43.75 12.5V17.5C43.7508 18.1628 44.0144 18.7982 44.4831 19.2669C44.9518 19.7356 45.5872 19.9992 46.25 20ZM46.25 12.5H51.25L51.2516 17.5H46.25V12.5Z" fill="url(#paint8_radial)"/>
<path d="M26.25 47.5H21.25C20.5872 47.5008 19.9518 47.7644 19.4831 48.2331C19.0144 48.7018 18.7508 49.3372 18.75 50V55C18.7508 55.6628 19.0144 56.2982 19.4831 56.7669C19.9518 57.2356 20.5872 57.4992 21.25 57.5H26.25C26.9128 57.4992 27.5482 57.2356 28.0169 56.7669C28.4856 56.2982 28.7492 55.6628 28.75 55V50C28.7492 49.3372 28.4856 48.7018 28.0169 48.2331C27.5482 47.7644 26.9128 47.5008 26.25 47.5ZM26.25 55H21.25V50H26.25L26.2516 55H26.25Z" fill="url(#paint9_radial)"/>
<path d="M26.25 60H21.25C20.5872 60.0008 19.9518 60.2644 19.4831 60.7331C19.0144 61.2018 18.7508 61.8372 18.75 62.5V67.5C18.7508 68.1628 19.0144 68.7982 19.4831 69.2669C19.9518 69.7356 20.5872 69.9992 21.25 70H26.25C26.9128 69.9992 27.5482 69.7356 28.0169 69.2669C28.4856 68.7982 28.7492 68.1628 28.75 67.5V62.5C28.7492 61.8372 28.4856 61.2018 28.0169 60.7331C27.5482 60.2644 26.9128 60.0008 26.25 60ZM26.25 67.5H21.25V62.5H26.25L26.2516 67.5H26.25Z" fill="url(#paint10_radial)"/>
<path d="M66.4016 49.8453C65.8835 49.3293 65.2262 48.9756 64.5101 48.8277C63.7941 48.6798 63.0504 48.744 62.3703 49.0125C62.1537 48.2185 61.6819 47.5179 61.0276 47.0186C60.3734 46.5194 59.573 46.2493 58.75 46.25V5.625C58.7487 4.46507 58.2874 3.35302 57.4672 2.53282C56.647 1.71263 55.5349 1.25128 54.375 1.25H18.125C16.9651 1.25128 15.853 1.71263 15.0328 2.53282C14.2126 3.35302 13.7513 4.46507 13.75 5.625V74.375C13.7513 75.5349 14.2126 76.647 15.0328 77.4672C15.853 78.2874 16.9651 78.7487 18.125 78.75H63.75C64.0815 78.75 64.3995 78.6183 64.6339 78.3839C64.8683 78.1495 65 77.8315 65 77.5V71.7672L67.1344 69.6344C67.3686 69.3997 67.5001 69.0816 67.5 68.75V52.5C67.501 52.0069 67.4045 51.5185 67.216 51.0629C67.0275 50.6073 66.7507 50.1935 66.4016 49.8453ZM42.1484 3.75L41.5234 6.25H30.9766L30.3516 3.75H42.1484ZM47.5031 76.25H18.125C17.6278 76.2496 17.1512 76.0519 16.7996 75.7004C16.4481 75.3488 16.2504 74.8722 16.25 74.375V5.625C16.2504 5.12785 16.4481 4.65117 16.7996 4.29963C17.1512 3.94809 17.6278 3.75041 18.125 3.75H27.7734L28.7875 7.80312C28.8551 8.07355 29.0111 8.31362 29.2308 8.48518C29.4505 8.65675 29.7213 8.74996 30 8.75H42.5C42.7787 8.74996 43.0495 8.65675 43.2692 8.48518C43.4889 8.31362 43.6449 8.07355 43.7125 7.80312L44.7266 3.75H54.375C54.8722 3.75041 55.3488 3.94809 55.7004 4.29963C56.0519 4.65117 56.2496 5.12785 56.25 5.625V45.9531C55.7483 45.5056 55.1357 45.2009 54.4761 45.0709C53.8164 44.9409 53.134 44.9903 52.5 45.2141V38.75C52.5 37.7554 52.1049 36.8016 51.4016 36.0984C50.6984 35.3951 49.7446 35 48.75 35C47.7554 35 46.8016 35.3951 46.0984 36.0984C45.3951 36.8016 45 37.7554 45 38.75V53.2312C44.9891 53.2109 44.9797 53.1906 44.9672 53.1719C44.4726 52.3089 43.6555 51.6777 42.6955 51.4172C41.7355 51.1567 40.7114 51.2882 39.8484 51.7828C38.9854 52.2774 38.3543 53.0946 38.0938 54.0545C37.8333 55.0145 37.9648 56.0386 38.4594 56.9016L45.1703 69.4297C45.2313 69.5443 45.3099 69.6487 45.4031 69.7391L47.5172 71.7797L47.5031 76.25ZM65 68.2328L62.8656 70.3656C62.6314 70.6003 62.4999 70.9184 62.5 71.25V76.25H50.0031L50.0187 71.2531C50.019 71.0847 49.9853 70.918 49.9199 70.7628C49.8544 70.6077 49.7583 70.4673 49.6375 70.35L47.2812 68.0766L40.6547 55.7047L40.6359 55.6719C40.4706 55.3839 40.4262 55.0422 40.5123 54.7215C40.5984 54.4009 40.808 54.1274 41.0953 53.9609C41.2841 53.8509 41.4987 53.7932 41.7172 53.7938C41.9318 53.794 42.1427 53.8493 42.3298 53.9544C42.5169 54.0594 42.674 54.2107 42.7859 54.3937L45.1328 59.0766C45.259 59.328 45.4663 59.5295 45.7212 59.6485C45.9761 59.7675 46.2637 59.7971 46.5375 59.7324C46.8112 59.6677 47.0552 59.5125 47.2298 59.292C47.4045 59.0715 47.4997 58.7985 47.5 58.5172V38.75C47.5005 38.4186 47.6323 38.1009 47.8666 37.8666C48.1009 37.6323 48.4186 37.5005 48.75 37.5C48.9142 37.4998 49.0769 37.532 49.2286 37.5947C49.3804 37.6574 49.5183 37.7495 49.6344 37.8656C49.7505 37.9817 49.8426 38.1196 49.9053 38.2714C49.968 38.4231 50.0002 38.5858 50 38.75V55C50 55.3315 50.1317 55.6495 50.3661 55.8839C50.6005 56.1183 50.9185 56.25 51.25 56.25C51.5815 56.25 51.8995 56.1183 52.1339 55.8839C52.3683 55.6495 52.5 55.3315 52.5 55V48.75C52.5005 48.4186 52.6323 48.1009 52.8666 47.8666C53.1009 47.6323 53.4186 47.5005 53.75 47.5C53.9142 47.4998 54.0769 47.532 54.2286 47.5947C54.3804 47.6574 54.5183 47.7495 54.6344 47.8656C54.7505 47.9817 54.8426 48.1196 54.9053 48.2714C54.968 48.4231 55.0002 48.5858 55 48.75V55C55 55.3315 55.1317 55.6495 55.3661 55.8839C55.6005 56.1183 55.9185 56.25 56.25 56.25C56.5815 56.25 56.8995 56.1183 57.1339 55.8839C57.3683 55.6495 57.5 55.3315 57.5 55V50C57.5005 49.6686 57.6323 49.3509 57.8666 49.1166C58.1009 48.8823 58.4186 48.7505 58.75 48.75C58.9142 48.7498 59.0769 48.782 59.2286 48.8447C59.3804 48.9074 59.5183 48.9995 59.6344 49.1156C59.7505 49.2317 59.8426 49.3696 59.9053 49.5214C59.968 49.6731 60.0002 49.8358 60 50V55C60 55.3315 60.1317 55.6495 60.3661 55.8839C60.6005 56.1183 60.9185 56.25 61.25 56.25C61.5815 56.25 61.8995 56.1183 62.1339 55.8839C62.3683 55.6495 62.5 55.3315 62.5 55V52.5C62.5005 52.1686 62.6323 51.8509 62.8666 51.6166C63.1009 51.3823 63.4186 51.2505 63.75 51.25C63.9142 51.2498 64.0769 51.282 64.2286 51.3447C64.3804 51.4074 64.5183 51.4995 64.6344 51.6156C64.7505 51.7317 64.8426 51.8696 64.9053 52.0214C64.968 52.1731 65.0002 52.3358 65 52.5V68.2328Z" fill="url(#paint11_radial)"/>
<defs>
<radialGradient id="paint0_radial" cx="0" cy="0" r="1" gradientUnits="userSpaceOnUse" gradientTransform="translate(36.25 73.75) rotate(-13.8146) scale(26.2081 15.7946)">
<stop stop-color="#F74874"/>
<stop offset="0.536905" stop-color="#7E65BF"/>
</radialGradient>
<radialGradient id="paint1_radial" cx="0" cy="0" r="1" gradientUnits="userSpaceOnUse" gradientTransform="translate(36.25 40) rotate(-44.5257) scale(35.6974 46.3839)">
<stop stop-color="#F74874"/>
<stop offset="0.536905" stop-color="#7E65BF"/>
</radialGradient>
<radialGradient id="paint2_radial" cx="0" cy="0" r="1" gradientUnits="userSpaceOnUse" gradientTransform="translate(23.75 40) rotate(-44.5257) scale(35.6974 46.3839)">
<stop stop-color="#F74874"/>
<stop offset="0.536905" stop-color="#7E65BF"/>
</radialGradient>
<radialGradient id="paint3_radial" cx="0" cy="0" r="1" gradientUnits="userSpaceOnUse" gradientTransform="translate(36.25 27.5) rotate(-44.5257) scale(35.6974 46.3839)">
<stop stop-color="#F74874"/>
<stop offset="0.536905" stop-color="#7E65BF"/>
</radialGradient>
<radialGradient id="paint4_radial" cx="0" cy="0" r="1" gradientUnits="userSpaceOnUse" gradientTransform="translate(23.75 27.5) rotate(-44.5257) scale(35.6974 46.3839)">
<stop stop-color="#F74874"/>
<stop offset="0.536905" stop-color="#7E65BF"/>
</radialGradient>
<radialGradient id="paint5_radial" cx="0" cy="0" r="1" gradientUnits="userSpaceOnUse" gradientTransform="translate(48.75 27.5) rotate(-44.5257) scale(35.6974 46.3839)">
<stop stop-color="#F74874"/>
<stop offset="0.536905" stop-color="#7E65BF"/>
</radialGradient>
<radialGradient id="paint6_radial" cx="0" cy="0" r="1" gradientUnits="userSpaceOnUse" gradientTransform="translate(36.25 15) rotate(-44.5257) scale(35.6974 46.3839)">
<stop stop-color="#F74874"/>
<stop offset="0.536905" stop-color="#7E65BF"/>
</radialGradient>
<radialGradient id="paint7_radial" cx="0" cy="0" r="1" gradientUnits="userSpaceOnUse" gradientTransform="translate(23.75 15) rotate(-44.5257) scale(35.6974 46.3839)">
<stop stop-color="#F74874"/>
<stop offset="0.536905" stop-color="#7E65BF"/>
</radialGradient>
<radialGradient id="paint8_radial" cx="0" cy="0" r="1" gradientUnits="userSpaceOnUse" gradientTransform="translate(48.75 15) rotate(-44.5257) scale(35.6974 46.3839)">
<stop stop-color="#F74874"/>
<stop offset="0.536905" stop-color="#7E65BF"/>
</radialGradient>
<radialGradient id="paint9_radial" cx="0" cy="0" r="1" gradientUnits="userSpaceOnUse" gradientTransform="translate(23.75 52.5) rotate(-44.5257) scale(35.6974 46.3839)">
<stop stop-color="#F74874"/>
<stop offset="0.536905" stop-color="#7E65BF"/>
</radialGradient>
<radialGradient id="paint10_radial" cx="0" cy="0" r="1" gradientUnits="userSpaceOnUse" gradientTransform="translate(23.75 65) rotate(-44.5257) scale(35.6974 46.3839)">
<stop stop-color="#F74874"/>
<stop offset="0.536905" stop-color="#7E65BF"/>
</radialGradient>
<radialGradient id="paint11_radial" cx="0" cy="0" r="1" gradientUnits="userSpaceOnUse" gradientTransform="translate(40.625 40) rotate(-54.8113) scale(237.377 290.566)">
<stop stop-color="#F74874"/>
<stop offset="0.536905" stop-color="#7E65BF"/>
</radialGradient>
</defs>
</svg>
