<svg width="80" height="80" viewBox="0 0 80 80" fill="none" xmlns="http://www.w3.org/2000/svg">
<path d="M26.25 72.5C25.9185 72.5 25.6005 72.6317 25.3661 72.8661C25.1317 73.1005 25 73.4185 25 73.75C25 74.0815 25.1317 74.3995 25.3661 74.6339C25.6005 74.8683 25.9185 75 26.25 75H33.75C34.0815 75 34.3995 74.8683 34.6339 74.6339C34.8683 74.3995 35 74.0815 35 73.75C35 73.4185 34.8683 73.1005 34.6339 72.8661C34.3995 72.6317 34.0815 72.5 33.75 72.5H26.25Z" fill="url(#paint0_radial)"/>
<path d="M71.25 22.5H52.5V5.625C52.4987 4.46507 52.0374 3.35302 51.2172 2.53282C50.397 1.71263 49.2849 1.25128 48.125 1.25H11.875C10.7151 1.25128 9.60302 1.71263 8.78282 2.53282C7.96263 3.35302 7.50128 4.46507 7.5 5.625V74.375C7.50128 75.5349 7.96263 76.647 8.78282 77.4672C9.60302 78.2874 10.7151 78.7487 11.875 78.75H48.125C49.2849 78.7487 50.397 78.2874 51.2172 77.4672C52.0374 76.647 52.4987 75.5349 52.5 74.375V55H71.25C71.5815 55 71.8995 54.8683 72.1339 54.6339C72.3683 54.3995 72.5 54.0815 72.5 53.75V23.75C72.5 23.4185 72.3683 23.1005 72.1339 22.8661C71.8995 22.6317 71.5815 22.5 71.25 22.5ZM35.8984 3.75L35.2734 6.25H24.7266L24.1016 3.75H35.8984ZM50 74.375C49.9996 74.8722 49.8019 75.3488 49.4504 75.7004C49.0988 76.0519 48.6222 76.2496 48.125 76.25H11.875C11.3778 76.2496 10.9012 76.0519 10.5496 75.7004C10.1981 75.3488 10.0004 74.8722 10 74.375V5.625C10.0004 5.12785 10.1981 4.65117 10.5496 4.29963C10.9012 3.94809 11.3778 3.75041 11.875 3.75H21.5234L22.5375 7.80312C22.6051 8.07355 22.7611 8.31362 22.9808 8.48518C23.2005 8.65675 23.4713 8.74996 23.75 8.75H36.25C36.5287 8.74996 36.7995 8.65675 37.0192 8.48518C37.2389 8.31362 37.3949 8.07355 37.4625 7.80312L38.4766 3.75H48.125C48.6222 3.75041 49.0988 3.94809 49.4504 4.29963C49.8019 4.65117 49.9996 5.12785 50 5.625V22.5H26.25C25.9185 22.5 25.6005 22.6317 25.3661 22.8661C25.1317 23.1005 25 23.4185 25 23.75V33.75H18.75C18.4185 33.75 18.1005 33.8817 17.8661 34.1161C17.6317 34.3505 17.5 34.6685 17.5 35C17.5 35.3315 17.6317 35.6495 17.8661 35.8839C18.1005 36.1183 18.4185 36.25 18.75 36.25H25V43.75H18.75C18.4185 43.75 18.1005 43.8817 17.8661 44.1161C17.6317 44.3505 17.5 44.6685 17.5 45C17.5 45.3315 17.6317 45.6495 17.8661 45.8839C18.1005 46.1183 18.4185 46.25 18.75 46.25H25V53.75C25 54.0815 25.1317 54.3995 25.3661 54.6339C25.6005 54.8683 25.9185 55 26.25 55H50V74.375ZM27.5 30.7719L38.5 36.2719L28.0672 52.5H27.5V30.7719ZM31.0391 52.5L40.7484 37.3969L48.1906 41.1188C48.3645 41.2051 48.5559 41.25 48.75 41.25C48.9441 41.25 49.1355 41.2051 49.3094 41.1188L56.7516 37.3969L66.4609 52.5H31.0391ZM70 52.5H69.4328L59 36.2719L70 30.7719V52.5ZM70 27.9781L48.75 38.6031L27.5 27.9781V25H70V27.9781Z" fill="url(#paint1_radial)"/>
<path d="M13.75 41.25H22.5C22.8315 41.25 23.1495 41.1183 23.3839 40.8839C23.6183 40.6495 23.75 40.3315 23.75 40C23.75 39.6685 23.6183 39.3505 23.3839 39.1161C23.1495 38.8817 22.8315 38.75 22.5 38.75H13.75C13.4185 38.75 13.1005 38.8817 12.8661 39.1161C12.6317 39.3505 12.5 39.6685 12.5 40C12.5 40.3315 12.6317 40.6495 12.8661 40.8839C13.1005 41.1183 13.4185 41.25 13.75 41.25Z" fill="url(#paint2_radial)"/>
<path d="M15 43.75H13.75C13.4185 43.75 13.1005 43.8817 12.8661 44.1161C12.6317 44.3505 12.5 44.6685 12.5 45C12.5 45.3315 12.6317 45.6495 12.8661 45.8839C13.1005 46.1183 13.4185 46.25 13.75 46.25H15C15.3315 46.25 15.6495 46.1183 15.8839 45.8839C16.1183 45.6495 16.25 45.3315 16.25 45C16.25 44.6685 16.1183 44.3505 15.8839 44.1161C15.6495 43.8817 15.3315 43.75 15 43.75Z" fill="url(#paint3_radial)"/>
<defs>
<radialGradient id="paint0_radial" cx="0" cy="0" r="1" gradientUnits="userSpaceOnUse" gradientTransform="translate(30 73.75) rotate(-13.8146) scale(26.2081 15.7946)">
<stop stop-color="#F74874"/>
<stop offset="0.536905" stop-color="#7E65BF"/>
</radialGradient>
<radialGradient id="paint1_radial" cx="0" cy="0" r="1" gradientUnits="userSpaceOnUse" gradientTransform="translate(40 40) rotate(-49.5453) scale(254.953 327.16)">
<stop stop-color="#F74874"/>
<stop offset="0.536905" stop-color="#7E65BF"/>
</radialGradient>
<radialGradient id="paint2_radial" cx="0" cy="0" r="1" gradientUnits="userSpaceOnUse" gradientTransform="translate(18.125 40) rotate(-12.3294) scale(29.3072 15.8899)">
<stop stop-color="#F74874"/>
<stop offset="0.536905" stop-color="#7E65BF"/>
</radialGradient>
<radialGradient id="paint3_radial" cx="0" cy="0" r="1" gradientUnits="userSpaceOnUse" gradientTransform="translate(14.375 45) rotate(-33.2536) scale(11.4125 13.6017)">
<stop stop-color="#F74874"/>
<stop offset="0.536905" stop-color="#7E65BF"/>
</radialGradient>
</defs>
</svg>
