<svg width="80" height="80" viewBox="0 0 80 80" fill="none" xmlns="http://www.w3.org/2000/svg">
<path d="M56.25 25.0531V7.5C56.2483 5.8429 55.5893 4.25415 54.4176 3.08241C53.2458 1.91067 51.6571 1.25165 50 1.25H17.5C15.8429 1.25165 14.2542 1.91067 13.0824 3.08241C11.9107 4.25415 11.2517 5.8429 11.25 7.5V72.5C11.2517 74.1571 11.9107 75.7458 13.0824 76.9176C14.2542 78.0893 15.8429 78.7483 17.5 78.75H50C51.6571 78.7483 53.2458 78.0893 54.4176 76.9176C55.5893 75.7458 56.2483 74.1571 56.25 72.5V54.9469C59.9988 54.6338 63.4931 52.9234 66.0401 50.1549C68.587 47.3864 70.0007 43.7619 70.0007 40C70.0007 36.2381 68.587 32.6136 66.0401 29.8451C63.4931 27.0766 59.9988 25.3662 56.25 25.0531ZM40.8991 3.75L40.2741 6.25H27.2259L26.6009 3.75H40.8991ZM53.75 72.5C53.7487 73.4942 53.3532 74.4472 52.6502 75.1502C51.9472 75.8532 50.9942 76.2487 50 76.25H17.5C16.5058 76.2487 15.5528 75.8532 14.8498 75.1502C14.1468 74.4472 13.7513 73.4942 13.75 72.5V7.5C13.7513 6.50584 14.1468 5.55279 14.8498 4.84981C15.5528 4.14684 16.5058 3.75132 17.5 3.75H24.0241L25.0373 7.80312C25.1049 8.07358 25.261 8.31367 25.4807 8.48523C25.7005 8.6568 25.9712 8.74999 26.25 8.75H41.25C41.5288 8.74999 41.7995 8.6568 42.0193 8.48523C42.239 8.31367 42.3951 8.07358 42.4627 7.80312L43.4759 3.75H50C50.9942 3.75132 51.9472 4.14684 52.6502 4.84981C53.3532 5.55279 53.7487 6.50584 53.75 7.5V25.0531C50.0012 25.3662 46.5069 27.0766 43.9599 29.8451C41.413 32.6136 39.9993 36.2381 39.9993 40C39.9993 43.7619 41.413 47.3864 43.9599 50.1549C46.5069 52.9234 50.0012 54.6338 53.75 54.9469V72.5ZM56.25 52.4391C55.8391 52.4797 55.4224 52.5 55 52.5C54.5776 52.5 54.1609 52.4797 53.75 52.4391C50.6666 52.1288 47.8083 50.6844 45.7295 48.386C43.6508 46.0876 42.4998 43.099 42.4998 40C42.4998 36.901 43.6508 33.9124 45.7295 31.614C47.8083 29.3156 50.6666 27.8712 53.75 27.5609C54.1609 27.5203 54.5776 27.5 55 27.5C55.4224 27.5 55.8391 27.5203 56.25 27.5609C59.3334 27.8712 62.1917 29.3156 64.2705 31.614C66.3492 33.9124 67.5002 36.901 67.5002 40C67.5002 43.099 66.3492 46.0876 64.2705 48.386C62.1917 50.6844 59.3334 52.1288 56.25 52.4391Z" fill="url(#paint0_radial)"/>
<path d="M58.75 36.25C59.0815 36.25 59.3995 36.1183 59.6339 35.8839C59.8683 35.6495 60 35.3315 60 35C60 34.6685 59.8683 34.3505 59.6339 34.1161C59.3995 33.8817 59.0815 33.75 58.75 33.75H56.25C56.25 33.4185 56.1183 33.1005 55.8839 32.8661C55.6495 32.6317 55.3315 32.5 55 32.5C54.6685 32.5 54.3505 32.6317 54.1161 32.8661C53.8817 33.1005 53.75 33.4185 53.75 33.75H51.25C50.9185 33.75 50.6005 33.8817 50.3661 34.1161C50.1317 34.3505 50 34.6685 50 35V40C50 40.3315 50.1317 40.6495 50.3661 40.8839C50.6005 41.1183 50.9185 41.25 51.25 41.25H57.5V43.75H51.25C50.9185 43.75 50.6005 43.8817 50.3661 44.1161C50.1317 44.3505 50 44.6685 50 45C50 45.3315 50.1317 45.6495 50.3661 45.8839C50.6005 46.1183 50.9185 46.25 51.25 46.25H53.75C53.75 46.5815 53.8817 46.8995 54.1161 47.1339C54.3505 47.3683 54.6685 47.5 55 47.5C55.3315 47.5 55.6495 47.3683 55.8839 47.1339C56.1183 46.8995 56.25 46.5815 56.25 46.25H58.75C59.0815 46.25 59.3995 46.1183 59.6339 45.8839C59.8683 45.6495 60 45.3315 60 45V40C60 39.6685 59.8683 39.3505 59.6339 39.1161C59.3995 38.8817 59.0815 38.75 58.75 38.75H52.5V36.25H58.75Z" fill="url(#paint1_radial)"/>
<path d="M25 72.5H16.25C15.9185 72.5 15.6005 72.6317 15.3661 72.8661C15.1317 73.1005 15 73.4185 15 73.75C15 74.0815 15.1317 74.3995 15.3661 74.6339C15.6005 74.8683 15.9185 75 16.25 75H25C25.3315 75 25.6495 74.8683 25.8839 74.6339C26.1183 74.3995 26.25 74.0815 26.25 73.75C26.25 73.4185 26.1183 73.1005 25.8839 72.8661C25.6495 72.6317 25.3315 72.5 25 72.5Z" fill="url(#paint2_radial)"/>
<path d="M30 72.5H28.9062C28.5747 72.5 28.2568 72.6317 28.0224 72.8661C27.7879 73.1005 27.6562 73.4185 27.6562 73.75C27.6562 74.0815 27.7879 74.3995 28.0224 74.6339C28.2568 74.8683 28.5747 75 28.9062 75H30C30.3315 75 30.6495 74.8683 30.8839 74.6339C31.1183 74.3995 31.25 74.0815 31.25 73.75C31.25 73.4185 31.1183 73.1005 30.8839 72.8661C30.6495 72.6317 30.3315 72.5 30 72.5Z" fill="url(#paint3_radial)"/>
<defs>
<radialGradient id="paint0_radial" cx="0" cy="0" r="1" gradientUnits="userSpaceOnUse" gradientTransform="translate(40.6253 40) rotate(-52.3775) scale(244.932 307.803)">
<stop stop-color="#F74874"/>
<stop offset="0.536905" stop-color="#7E65BF"/>
</radialGradient>
<radialGradient id="paint1_radial" cx="0" cy="0" r="1" gradientUnits="userSpaceOnUse" gradientTransform="translate(55 40) rotate(-55.8707) scale(45.3603 54.7544)">
<stop stop-color="#F74874"/>
<stop offset="0.536905" stop-color="#7E65BF"/>
</radialGradient>
<radialGradient id="paint2_radial" cx="0" cy="0" r="1" gradientUnits="userSpaceOnUse" gradientTransform="translate(20.625 73.75) rotate(-12.3294) scale(29.3072 15.8899)">
<stop stop-color="#F74874"/>
<stop offset="0.536905" stop-color="#7E65BF"/>
</radialGradient>
<radialGradient id="paint3_radial" cx="0" cy="0" r="1" gradientUnits="userSpaceOnUse" gradientTransform="translate(29.4531 73.75) rotate(-34.381) scale(11.0821 13.4236)">
<stop stop-color="#F74874"/>
<stop offset="0.536905" stop-color="#7E65BF"/>
</radialGradient>
</defs>
</svg>
