<svg width="177" height="54" viewBox="0 0 177 54" fill="none" xmlns="http://www.w3.org/2000/svg">
<path d="M26.72 53.8799C41.477 53.8799 53.44 41.9169 53.44 27.1599C53.44 12.4029 41.477 0.439941 26.72 0.439941C11.963 0.439941 0 12.4029 0 27.1599C0 41.9169 11.963 53.8799 26.72 53.8799Z" fill="#F74874"/>
<path d="M37.18 21.68V39.12C37.18 39.86 36.886 40.5696 36.3628 41.0928C35.8396 41.6161 35.1299 41.91 34.3899 41.91H20C19.6327 41.9113 19.2687 41.8401 18.9291 41.7005C18.5894 41.5609 18.2808 41.3556 18.0207 41.0964C17.7605 40.8372 17.5541 40.5292 17.4133 40.19C17.2724 39.8509 17.1999 39.4872 17.2 39.12V15.21C17.2052 14.4718 17.5029 13.7658 18.0277 13.2466C18.5525 12.7274 19.2617 12.4373 20 12.44H30.2299C30.6974 12.4403 31.1573 12.5575 31.5678 12.7811C31.9782 13.0047 32.3262 13.3275 32.58 13.72L36.7299 20.19C37.0188 20.6337 37.1749 21.1506 37.18 21.68Z" fill="white"/>
<path d="M21.55 26.52H24.22V29.26H20.55V27.52C20.55 27.2548 20.6554 27.0004 20.8429 26.8129C21.0305 26.6254 21.2848 26.52 21.55 26.52Z" fill="#F74874"/>
<path d="M28.9 26.52H25.23V29.26H28.9V26.52Z" fill="#F74874"/>
<path d="M29.8301 26.52H31.5701C31.8353 26.52 32.0896 26.6254 32.2772 26.8129C32.4647 27.0004 32.5701 27.2548 32.5701 27.52V29.26H29.8301V26.52Z" fill="#F74874"/>
<path d="M32.57 30.6499H20.55V34.3199H32.57V30.6499Z" fill="#F74874"/>
<path d="M20.55 35.7197H24.22V38.4397H21.55C21.2848 38.4397 21.0305 38.3343 20.8429 38.1468C20.6554 37.9593 20.55 37.7049 20.55 37.4397V35.7197Z" fill="#F74874"/>
<path d="M28.9 35.7197H25.23V38.4597H28.9V35.7197Z" fill="#F74874"/>
<path d="M29.8301 35.7197H32.5701V37.4397C32.5701 37.7049 32.4647 37.9593 32.2772 38.1468C32.0896 38.3343 31.8353 38.4397 31.5701 38.4397H29.8301V35.7197Z" fill="#F74874"/>
<path d="M66.4996 6.25098L71.0699 20.6175H71.2453L75.8249 6.25098H80.2567L73.7382 25.1601H68.5862L62.0585 6.25098H66.4996ZM86.5305 6.25098V25.1601H82.5326V6.25098H86.5305ZM89.8197 25.1601V6.25098H97.28C98.708 6.25098 99.9267 6.50643 100.936 7.01732C101.952 7.52205 102.724 8.23915 103.254 9.1686C103.789 10.0919 104.057 11.1783 104.057 12.4279C104.057 13.6835 103.786 14.7638 103.244 15.6686C102.703 16.5673 101.918 17.2567 100.89 17.7368C99.8683 18.2169 98.6311 18.457 97.1784 18.457H92.1834V15.2439H96.5321C97.2954 15.2439 97.9293 15.1393 98.4341 14.93C98.9388 14.7207 99.3143 14.4068 99.5605 13.9882C99.8129 13.5697 99.9391 13.0495 99.9391 12.4279C99.9391 11.8 99.8129 11.2707 99.5605 10.8398C99.3143 10.4089 98.9357 10.0827 98.4248 9.86107C97.9201 9.63332 97.283 9.51945 96.5136 9.51945H93.8176V25.1601H89.8197ZM100.031 16.555L104.731 25.1601H100.318L95.7196 16.555H100.031ZM106.162 9.54715V6.25098H121.692V9.54715H115.903V25.1601H111.951V9.54715H106.162ZM135.929 6.25098H139.927V18.5308C139.927 19.9096 139.598 21.1161 138.939 22.1502C138.287 23.1843 137.373 23.9906 136.197 24.5692C135.021 25.1416 133.652 25.4279 132.088 25.4279C130.519 25.4279 129.146 25.1416 127.97 24.5692C126.795 23.9906 125.881 23.1843 125.228 22.1502C124.576 21.1161 124.249 19.9096 124.249 18.5308V6.25098H128.247V18.1892C128.247 18.9094 128.404 19.5495 128.718 20.1097C129.038 20.6698 129.488 21.1099 130.066 21.43C130.645 21.7501 131.319 21.9101 132.088 21.9101C132.864 21.9101 133.538 21.7501 134.11 21.43C134.689 21.1099 135.135 20.6698 135.449 20.1097C135.769 19.5495 135.929 18.9094 135.929 18.1892V6.25098ZM146.475 25.1601H142.191L148.719 6.25098H153.871L160.39 25.1601H156.105L151.369 10.572H151.221L146.475 25.1601ZM146.208 17.7276H156.327V20.8483H146.208V17.7276ZM162.665 25.1601V6.25098H166.663V21.8639H174.77V25.1601H162.665ZM78.8995 29.251V48.1601H75.4463L67.2198 36.2588H67.0813V48.1601H63.0834V29.251H66.5919L74.7539 41.1431H74.9201V29.251H78.8995ZM93.8822 29.251H97.8801V41.5308C97.8801 42.9096 97.5508 44.1161 96.8922 45.1502C96.2397 46.1843 95.3257 46.9906 94.15 47.5692C92.9743 48.1416 91.6048 48.4279 90.0413 48.4279C88.4717 48.4279 87.0991 48.1416 85.9234 47.5692C84.7478 46.9906 83.8337 46.1843 83.1812 45.1502C82.5288 44.1161 82.2025 42.9096 82.2025 41.5308V29.251H86.2004V41.1892C86.2004 41.9094 86.3574 42.5495 86.6713 43.1097C86.9914 43.6698 87.4407 44.1099 88.0193 44.43C88.5979 44.7501 89.2719 44.9101 90.0413 44.9101C90.8169 44.9101 91.4909 44.7501 92.0633 44.43C92.6419 44.1099 93.0882 43.6698 93.4021 43.1097C93.7222 42.5495 93.8822 41.9094 93.8822 41.1892V29.251ZM101.169 29.251H106.1L111.307 41.9556H111.529L116.736 29.251H121.667V48.1601H117.789V35.8526H117.632L112.738 48.0678H110.098L105.204 35.8064H105.047V48.1601H101.169V29.251Z" fill="white"/>
</svg>
