<svg width="177" height="54" viewBox="0 0 177 54" fill="none" xmlns="http://www.w3.org/2000/svg">
<path d="M26.72 53.44C41.477 53.44 53.44 41.477 53.44 26.72C53.44 11.963 41.477 0 26.72 0C11.963 0 0 11.963 0 26.72C0 41.477 11.963 53.44 26.72 53.44Z" fill="#F74874"/>
<path d="M37.18 21.24V38.68C37.18 39.4199 36.886 40.1296 36.3628 40.6528C35.8396 41.176 35.1299 41.47 34.3899 41.47H20C19.6327 41.4713 19.2687 41.4001 18.9291 41.2605C18.5894 41.1209 18.2808 40.9156 18.0207 40.6564C17.7605 40.3972 17.5541 40.0891 17.4133 39.75C17.2724 39.4108 17.1999 39.0472 17.2 38.68V14.77C17.2052 14.0318 17.5029 13.3257 18.0277 12.8065C18.5525 12.2874 19.2617 11.9973 20 12H30.2299C30.6974 12.0002 31.1573 12.1175 31.5678 12.3411C31.9782 12.5647 32.3262 12.8874 32.58 13.28L36.7299 19.75C37.0188 20.1937 37.1749 20.7106 37.18 21.24Z" fill="white"/>
<path d="M21.55 26.08H24.22V28.82H20.55V27.08C20.55 26.8148 20.6554 26.5604 20.8429 26.3729C21.0305 26.1853 21.2848 26.08 21.55 26.08Z" fill="#F74874"/>
<path d="M28.9 26.08H25.23V28.82H28.9V26.08Z" fill="#F74874"/>
<path d="M29.8301 26.08H31.5701C31.8353 26.08 32.0896 26.1853 32.2772 26.3729C32.4647 26.5604 32.5701 26.8148 32.5701 27.08V28.82H29.8301V26.08Z" fill="#F74874"/>
<path d="M32.57 30.21H20.55V33.88H32.57V30.21Z" fill="#F74874"/>
<path d="M20.55 35.28H24.22V38H21.55C21.2848 38 21.0305 37.8946 20.8429 37.7071C20.6554 37.5196 20.55 37.2652 20.55 37V35.28Z" fill="#F74874"/>
<path d="M28.9 35.28H25.23V38.02H28.9V35.28Z" fill="#F74874"/>
<path d="M29.8301 35.28H32.5701V37C32.5701 37.2652 32.4647 37.5196 32.2772 37.7071C32.0896 37.8946 31.8353 38 31.5701 38H29.8301V35.28Z" fill="#F74874"/>
<path d="M66.4996 5.81091L71.0699 20.1774H71.2453L75.8249 5.81091H80.2567L73.7382 24.72H68.5862L62.0585 5.81091H66.4996ZM86.5305 5.81091V24.72H82.5326V5.81091H86.5305ZM89.8197 24.72V5.81091H97.28C98.708 5.81091 99.9267 6.06635 100.936 6.57725C101.952 7.08198 102.724 7.79907 103.254 8.72852C103.789 9.65182 104.057 10.7382 104.057 11.9878C104.057 13.2434 103.786 14.3237 103.244 15.2285C102.703 16.1272 101.918 16.8166 100.89 17.2967C99.8683 17.7768 98.6311 18.0169 97.1784 18.0169H92.1834V14.8038H96.5321C97.2954 14.8038 97.9293 14.6992 98.4341 14.4899C98.9388 14.2806 99.3143 13.9667 99.5605 13.5481C99.8129 13.1296 99.9391 12.6094 99.9391 11.9878C99.9391 11.3599 99.8129 10.8306 99.5605 10.3997C99.3143 9.96882 98.9357 9.64259 98.4248 9.421C97.9201 9.19325 97.283 9.07938 96.5136 9.07938H93.8176V24.72H89.8197ZM100.031 16.1149L104.731 24.72H100.318L95.7196 16.1149H100.031ZM106.162 9.10707V5.81091H121.692V9.10707H115.903V24.72H111.951V9.10707H106.162ZM135.929 5.81091H139.927V18.0907C139.927 19.4695 139.598 20.676 138.939 21.7101C138.287 22.7441 137.373 23.5505 136.197 24.1291C135.021 24.7015 133.652 24.9878 132.088 24.9878C130.519 24.9878 129.146 24.7015 127.97 24.1291C126.795 23.5505 125.881 22.7441 125.228 21.7101C124.576 20.676 124.249 19.4695 124.249 18.0907V5.81091H128.247V17.7491C128.247 18.4693 128.404 19.1094 128.718 19.6696C129.038 20.2297 129.488 20.6698 130.066 20.9899C130.645 21.31 131.319 21.47 132.088 21.47C132.864 21.47 133.538 21.31 134.11 20.9899C134.689 20.6698 135.135 20.2297 135.449 19.6696C135.769 19.1094 135.929 18.4693 135.929 17.7491V5.81091ZM146.475 24.72H142.191L148.719 5.81091H153.871L160.39 24.72H156.105L151.369 10.1319H151.221L146.475 24.72ZM146.208 17.2875H156.327V20.4082H146.208V17.2875ZM162.665 24.72V5.81091H166.663V21.4238H174.77V24.72H162.665ZM78.8995 28.8109V47.72H75.4463L67.2198 35.8187H67.0813V47.72H63.0834V28.8109H66.5919L74.7539 40.703H74.9201V28.8109H78.8995ZM93.8822 28.8109H97.8801V41.0907C97.8801 42.4695 97.5508 43.676 96.8922 44.7101C96.2397 45.7441 95.3257 46.5505 94.15 47.1291C92.9743 47.7015 91.6048 47.9878 90.0413 47.9878C88.4717 47.9878 87.0991 47.7015 85.9234 47.1291C84.7478 46.5505 83.8337 45.7441 83.1812 44.7101C82.5288 43.676 82.2025 42.4695 82.2025 41.0907V28.8109H86.2004V40.7491C86.2004 41.4693 86.3574 42.1094 86.6713 42.6696C86.9914 43.2297 87.4407 43.6698 88.0193 43.9899C88.5979 44.31 89.2719 44.47 90.0413 44.47C90.8169 44.47 91.4909 44.31 92.0633 43.9899C92.6419 43.6698 93.0882 43.2297 93.4021 42.6696C93.7222 42.1094 93.8822 41.4693 93.8822 40.7491V28.8109ZM101.169 28.8109H106.1L111.307 41.5155H111.529L116.736 28.8109H121.667V47.72H117.789V35.4125H117.632L112.738 47.6277H110.098L105.204 35.3663H105.047V47.72H101.169V28.8109Z" fill="#3B2F59"/>
</svg>
