<svg width="54" height="54" viewBox="0 0 54 54" fill="none" xmlns="http://www.w3.org/2000/svg">
<path d="M26.72 53.44C41.477 53.44 53.44 41.477 53.44 26.72C53.44 11.963 41.477 0 26.72 0C11.963 0 0 11.963 0 26.72C0 41.477 11.963 53.44 26.72 53.44Z" fill="#F74874"/>
<path d="M37.18 21.24V38.68C37.18 39.4199 36.886 40.1296 36.3628 40.6528C35.8396 41.176 35.1299 41.47 34.3899 41.47H20C19.6327 41.4713 19.2687 41.4001 18.9291 41.2605C18.5894 41.1209 18.2808 40.9156 18.0207 40.6564C17.7605 40.3972 17.5541 40.0891 17.4133 39.75C17.2724 39.4108 17.1999 39.0472 17.2 38.68V14.77C17.2052 14.0318 17.5029 13.3257 18.0277 12.8065C18.5525 12.2874 19.2617 11.9973 20 12H30.2299C30.6974 12.0002 31.1573 12.1175 31.5678 12.3411C31.9782 12.5647 32.3262 12.8874 32.58 13.28L36.7299 19.75C37.0188 20.1937 37.1749 20.7106 37.18 21.24Z" fill="white"/>
<path d="M21.55 26.08H24.22V28.82H20.55V27.08C20.55 26.8148 20.6554 26.5604 20.8429 26.3729C21.0305 26.1853 21.2848 26.08 21.55 26.08Z" fill="#F74874"/>
<path d="M28.9 26.08H25.23V28.82H28.9V26.08Z" fill="#F74874"/>
<path d="M29.8301 26.08H31.5701C31.8353 26.08 32.0896 26.1853 32.2772 26.3729C32.4647 26.5604 32.5701 26.8148 32.5701 27.08V28.82H29.8301V26.08Z" fill="#F74874"/>
<path d="M32.57 30.21H20.55V33.88H32.57V30.21Z" fill="#F74874"/>
<path d="M20.55 35.28H24.22V38H21.55C21.2848 38 21.0305 37.8946 20.8429 37.7071C20.6554 37.5196 20.55 37.2652 20.55 37V35.28Z" fill="#F74874"/>
<path d="M28.9 35.28H25.23V38.02H28.9V35.28Z" fill="#F74874"/>
<path d="M29.8301 35.28H32.5701V37C32.5701 37.2652 32.4647 37.5196 32.2772 37.7071C32.0896 37.8946 31.8353 38 31.5701 38H29.8301V35.28Z" fill="#F74874"/>
</svg>
