<svg width="379" height="370" viewBox="0 0 379 370" fill="none" xmlns="http://www.w3.org/2000/svg">
<g clip-path="url(#clip0)">
<path d="M257.492 87.9258H255.459V32.2333C255.459 23.6845 252.063 15.4859 246.018 9.44094C239.973 3.39602 231.775 1.07869e-05 223.226 1.15878e-10H105.234C101.001 -1.13497e-05 96.8092 0.833718 92.8985 2.45358C88.9877 4.07345 85.4344 6.44773 82.4412 9.44086C79.4481 12.434 77.0738 15.9874 75.4539 19.8981C73.834 23.8088 73.0003 28.0003 73.0002 32.2332V337.767C73.0002 342 73.834 346.191 75.4539 350.102C77.0737 354.013 79.448 357.566 82.4412 360.559C85.4343 363.552 88.9877 365.927 92.8984 367.546C96.8091 369.166 101.001 370 105.234 370H223.226C231.774 370 239.973 366.604 246.018 360.559C252.063 354.514 255.459 346.316 255.459 337.767V127.569H257.492L257.492 87.9258Z" fill="#3B2F59"/>
<path d="M224.526 8.38574H209.124C209.833 10.1222 210.103 12.0063 209.912 13.8719C209.72 15.7375 209.073 17.5274 208.027 19.084C206.981 20.6405 205.568 21.9159 203.913 22.7978C202.258 23.6797 200.411 24.1411 198.536 24.1412H130.94C129.064 24.1411 127.218 23.6797 125.563 22.7978C123.907 21.9159 122.495 20.6405 121.449 19.084C120.402 17.5274 119.755 15.7375 119.564 13.8719C119.373 12.0063 119.643 10.1222 120.351 8.38574H105.966C99.5816 8.38574 93.459 10.9218 88.9447 15.4361C84.4304 19.9504 81.8943 26.073 81.8943 32.4572V337.542C81.8943 340.703 82.5169 343.834 83.7266 346.754C84.9363 349.675 86.7094 352.328 88.9446 354.563C91.1799 356.799 93.8335 358.572 96.754 359.781C99.6745 360.991 102.805 361.614 105.966 361.614H224.526C227.687 361.614 230.817 360.991 233.738 359.781C236.658 358.572 239.312 356.799 241.547 354.563C243.783 352.328 245.556 349.675 246.765 346.754C247.975 343.834 248.598 340.703 248.598 337.542V32.4572C248.598 29.2961 247.975 26.1659 246.765 23.2454C245.556 20.3249 243.783 17.6713 241.547 15.4361C239.312 13.2008 236.658 11.4278 233.738 10.2181C230.817 9.00836 227.687 8.38574 224.526 8.38574Z" fill="white"/>
<path d="M189.805 140.678C201.598 140.678 211.158 139.767 211.158 138.644C211.158 137.521 201.598 136.61 189.805 136.61C178.013 136.61 168.453 137.521 168.453 138.644C168.453 139.767 178.013 140.678 189.805 140.678Z" fill="#E6E6E6"/>
<path d="M379 50.7725H182.427V115.304H189.873V132.182L206.75 115.304H379V50.7725Z" fill="#F74874"/>
<path d="M293.693 72.6255H204.306V75.3382H293.693V72.6255Z" fill="white"/>
<path d="M360.1 82.0093H204.306V84.7219H360.1V82.0093Z" fill="white"/>
<path d="M359.947 91.3931H204.306V94.1057H359.947V91.3931Z" fill="white"/>
<path d="M328.781 245.407H171.87V296.918H177.814V310.39L191.286 296.918H328.781V245.407Z" fill="#F74874"/>
<path d="M260.686 262.851H189.334V265.016H260.686V262.851Z" fill="white"/>
<path d="M313.694 270.341H189.334V272.507H313.694V270.341Z" fill="white"/>
<path d="M313.572 277.832H189.334V279.997H313.572V277.832Z" fill="white"/>
<path d="M177.759 317.172C187.172 317.172 194.803 316.446 194.803 315.549C194.803 314.653 187.172 313.926 177.759 313.926C168.346 313.926 160.715 314.653 160.715 315.549C160.715 316.446 168.346 317.172 177.759 317.172Z" fill="#E6E6E6"/>
<path d="M130.831 215.92C142.624 215.92 152.184 215.01 152.184 213.887C152.184 212.763 142.624 211.853 130.831 211.853C119.038 211.853 109.479 212.763 109.479 213.887C109.479 215.01 119.038 215.92 130.831 215.92Z" fill="#E6E6E6"/>
<path d="M-0.0419922 151.957H138.195V197.338H132.958V209.206L121.09 197.338H-0.0419922V151.957Z" fill="#F74874"/>
<path d="M77.1564 166.976H14.2966V168.883H77.1564V166.976Z" fill="white"/>
<path d="M123.856 173.575H14.2966V175.482H123.856V173.575Z" fill="white"/>
<path d="M123.749 180.174H14.2966V182.081H123.749V180.174Z" fill="white"/>
</g>
<defs>
<clipPath id="clip0">
<rect width="379" height="370" fill="white"/>
</clipPath>
</defs>
</svg>
