<svg width="24" height="25" viewBox="0 0 24 25" fill="none" xmlns="http://www.w3.org/2000/svg">
<g opacity="0.54">
<path d="M21.3188 20.5273L15.232 14.4406C16.1766 13.2195 16.6875 11.7266 16.6875 10.1563C16.6875 8.27656 15.9539 6.51406 14.6273 5.18516C13.3008 3.85625 11.5336 3.125 9.65625 3.125C7.77891 3.125 6.01172 3.85859 4.68516 5.18516C3.35625 6.51172 2.625 8.27656 2.625 10.1563C2.625 12.0336 3.35859 13.8008 4.68516 15.1273C6.01172 16.4563 7.77656 17.1875 9.65625 17.1875C11.2266 17.1875 12.7172 16.6766 13.9383 15.7344L20.025 21.8188C20.0429 21.8366 20.064 21.8508 20.0874 21.8604C20.1107 21.8701 20.1357 21.8751 20.1609 21.8751C20.1862 21.8751 20.2112 21.8701 20.2345 21.8604C20.2578 21.8508 20.279 21.8366 20.2969 21.8188L21.3188 20.7992C21.3366 20.7814 21.3508 20.7602 21.3604 20.7369C21.3701 20.7135 21.3751 20.6885 21.3751 20.6633C21.3751 20.638 21.3701 20.613 21.3604 20.5897C21.3508 20.5664 21.3366 20.5452 21.3188 20.5273ZM13.3688 13.8688C12.375 14.8602 11.0578 15.4063 9.65625 15.4063C8.25469 15.4063 6.9375 14.8602 5.94375 13.8688C4.95234 12.875 4.40625 11.5578 4.40625 10.1563C4.40625 8.75469 4.95234 7.43516 5.94375 6.44375C6.9375 5.45234 8.25469 4.90625 9.65625 4.90625C11.0578 4.90625 12.3773 5.45 13.3688 6.44375C14.3602 7.4375 14.9063 8.75469 14.9063 10.1563C14.9063 11.5578 14.3602 12.8773 13.3688 13.8688Z" fill="#232628"/>
</g>
</svg>
