<svg width="19" height="19" viewBox="0 0 19 19" fill="none" xmlns="http://www.w3.org/2000/svg">
<g clip-path="url(#clip0)">
<path d="M2.7 0C1.98392 0 1.29716 0.284464 0.790812 0.790812C0.284464 1.29716 0 1.98392 0 2.7L0 10.35C0.00105804 11.0658 0.285861 11.7519 0.79198 12.258C1.2981 12.7641 1.98424 13.0489 2.7 13.05H3.55C3.81522 13.05 4.06957 12.9446 4.25711 12.7571C4.44464 12.5696 4.55 12.3152 4.55 12.05C4.55 11.7848 4.44464 11.5304 4.25711 11.3429C4.06957 11.1554 3.81522 11.05 3.55 11.05H2.7C2.60796 11.0504 2.51676 11.0326 2.43165 10.9975C2.34655 10.9625 2.26922 10.9109 2.20414 10.8459C2.13906 10.7808 2.08751 10.7035 2.05248 10.6183C2.01744 10.5332 1.9996 10.442 2 10.35V2.7C1.9996 2.60796 2.01744 2.51676 2.05248 2.43165C2.08751 2.34655 2.13906 2.26922 2.20414 2.20414C2.26922 2.13906 2.34655 2.08751 2.43165 2.05248C2.51676 2.01744 2.60796 1.9996 2.7 2H10.35C10.5356 2.00026 10.7135 2.0741 10.8447 2.20532C10.9759 2.33654 11.0497 2.51443 11.05 2.7V3.55C11.05 3.81522 11.1554 4.06957 11.3429 4.25711C11.5304 4.44464 11.7848 4.55 12.05 4.55C12.3152 4.55 12.5696 4.44464 12.7571 4.25711C12.9446 4.06957 13.05 3.81522 13.05 3.55V2.7C13.05 1.98392 12.7655 1.29716 12.2592 0.790812C11.7528 0.284464 11.0661 0 10.35 0L2.7 0ZM8.65 5.95C7.93529 5.95446 7.25112 6.24035 6.74574 6.74574C6.24035 7.25112 5.95446 7.93529 5.95 8.65V16.3C5.95 17.78 7.171 19 8.65 19H16.3C17.78 19 19 17.78 19 16.3V8.65C19 7.171 17.78 5.95 16.3 5.95H8.65ZM8.65 7.95H16.3C16.7 7.95 17 8.252 17 8.65V16.3C17 16.7 16.7 17 16.3 17H8.65C8.55755 17.0019 8.46567 16.9851 8.37988 16.9506C8.29409 16.9161 8.21616 16.8646 8.15078 16.7992C8.08539 16.7338 8.0339 16.6559 7.9994 16.5701C7.9649 16.4843 7.94809 16.3924 7.95 16.3V8.65C7.95 8.252 8.252 7.95 8.65 7.95Z" fill="#C4C4C4"/>
</g>
<defs>
<clipPath id="clip0">
<rect width="19" height="19" fill="white"/>
</clipPath>
</defs>
</svg>
