<svg width="20" height="19" viewBox="0 0 20 19" fill="none" xmlns="http://www.w3.org/2000/svg">
<g clipPath="url(#clip0)">
<path d="M2.71001 0C1.99393 0 1.30717 0.284464 0.800821 0.790812C0.294473 1.29716 0.0100098 1.98392 0.0100098 2.7L0.0100098 10.35C0.0110678 11.0658 0.295871 11.7519 0.80199 12.258C1.30811 12.7641 1.99425 13.0489 2.71001 13.05H3.56001C3.82523 13.05 4.07958 12.9446 4.26712 12.7571C4.45465 12.5696 4.56001 12.3152 4.56001 12.05C4.56001 11.7848 4.45465 11.5304 4.26712 11.3429C4.07958 11.1554 3.82523 11.05 3.56001 11.05H2.71001C2.61797 11.0504 2.52677 11.0326 2.44166 10.9975C2.35656 10.9625 2.27923 10.9109 2.21415 10.8459C2.14907 10.7808 2.09752 10.7035 2.06249 10.6183C2.02745 10.5332 2.00961 10.442 2.01001 10.35V2.7C2.00961 2.60796 2.02745 2.51676 2.06249 2.43165C2.09752 2.34655 2.14907 2.26922 2.21415 2.20414C2.27923 2.13906 2.35656 2.08751 2.44166 2.05248C2.52677 2.01744 2.61797 1.9996 2.71001 2H10.36C10.5456 2.00026 10.7235 2.0741 10.8547 2.20532C10.9859 2.33654 11.0597 2.51443 11.06 2.7V3.55C11.06 3.81522 11.1654 4.06957 11.3529 4.25711C11.5404 4.44464 11.7948 4.55 12.06 4.55C12.3252 4.55 12.5796 4.44464 12.7671 4.25711C12.9547 4.06957 13.06 3.81522 13.06 3.55V2.7C13.06 1.98392 12.7755 1.29716 12.2692 0.790812C11.7628 0.284464 11.0761 0 10.36 0L2.71001 0ZM8.66001 5.95C7.9453 5.95446 7.26113 6.24035 6.75575 6.74574C6.25036 7.25112 5.96447 7.93529 5.96001 8.65V16.3C5.96001 17.78 7.18101 19 8.66001 19H16.31C17.79 19 19.01 17.78 19.01 16.3V8.65C19.01 7.171 17.79 5.95 16.31 5.95H8.66001ZM8.66001 7.95H16.31C16.71 7.95 17.01 8.252 17.01 8.65V16.3C17.01 16.7 16.71 17 16.31 17H8.66001C8.56756 17.0019 8.47568 16.9851 8.38989 16.9506C8.3041 16.9161 8.22617 16.8646 8.16079 16.7992C8.0954 16.7338 8.04391 16.6559 8.00941 16.5701C7.97491 16.4843 7.9581 16.3924 7.96001 16.3V8.65C7.96001 8.252 8.26201 7.95 8.66001 7.95Z" fill="#F74874"/>
</g>
<defs>
<clipPath id="clip0">
<rect width="19" height="19" fill="white" transform="translate(0.0100098)"/>
</clipPath>
</defs>
</svg>
