<svg width="24" height="25" viewBox="0 0 24 25" fill="none" xmlns="http://www.w3.org/2000/svg">
<path d="M11.9998 16.5C11.7661 16.5005 11.5397 16.4191 11.3598 16.27L5.35979 11.27C5.15557 11.1003 5.02715 10.8564 5.00277 10.5919C4.97839 10.3275 5.06005 10.0642 5.22979 9.86C5.39953 9.65578 5.64344 9.52736 5.90786 9.50298C6.17229 9.4786 6.43557 9.56026 6.63979 9.73L11.9998 14.21L17.3598 9.89C17.4621 9.80694 17.5798 9.7449 17.7061 9.70747C17.8324 9.67004 17.9649 9.65795 18.096 9.67189C18.227 9.68582 18.354 9.72552 18.4696 9.7887C18.5853 9.85187 18.6873 9.93727 18.7698 10.04C18.8614 10.1428 18.9307 10.2634 18.9735 10.3943C19.0163 10.5252 19.0316 10.6635 19.0185 10.8006C19.0053 10.9376 18.964 11.0705 18.8971 11.1909C18.8303 11.3112 18.7392 11.4165 18.6298 11.5L12.6298 16.33C12.4447 16.4555 12.2229 16.5154 11.9998 16.5Z" fill="#232628"/>
</svg>
