<svg width="40" height="40" viewBox="0 0 40 40" fill="none" xmlns="http://www.w3.org/2000/svg">
<path d="M12.7266 17.8672V22.2344H19.9453C19.6562 24.1094 17.7656 27.7266 12.7266 27.7266C8.38281 27.7266 4.83594 24.125 4.83594 19.6875C4.83594 15.25 8.38281 11.6484 12.7266 11.6484C15.2031 11.6484 16.8516 12.7031 17.7969 13.6094L21.25 10.2813C19.0312 8.21094 16.1562 6.95312 12.7266 6.95312C5.6875 6.96094 0 12.6484 0 19.6875C0 26.7266 5.6875 32.4141 12.7266 32.4141C20.0703 32.4141 24.9453 27.25 24.9453 19.9766C24.9453 19.1406 24.8516 18.5 24.7422 17.8672H12.7266Z" fill="white"/>
<path d="M40 17.5H36.25V13.75H32.5V17.5H28.75V21.25H32.5V25H36.25V21.25H40V17.5Z" fill="white"/>
</svg>
