<svg width="20" height="20" viewBox="0 0 20 20" fill="none" xmlns="http://www.w3.org/2000/svg">
<g clipPath="url(#clip0)">
<path d="M9.99 0.000183105C4.47 0.000183105 0 4.48018 0 10.0002C0 15.5202 4.47 20.0002 9.99 20.0002C15.52 20.0002 20 15.5202 20 10.0002C20 4.48018 15.52 0.000183105 9.99 0.000183105ZM10 18.0002C5.58 18.0002 2 14.4202 2 10.0002C2 5.58018 5.58 2.00018 10 2.00018C14.42 2.00018 18 5.58018 18 10.0002C18 14.4202 14.42 18.0002 10 18.0002ZM10.5 5.00018H9V11.0002L14.25 14.1502L15 12.9202L10.5 10.2502V5.00018Z" fill="#999999"/>
</g>
<defs>
<clipPath id="clip0">
<rect width="20" height="20" fill="white"/>
</clipPath>
</defs>
</svg>
