<svg width="150" height="46" viewBox="0 0 150 46" fill="none" xmlns="http://www.w3.org/2000/svg">
<g clip-path="url(#clip0)">
<path d="M22.6441 45.7797C35.15 45.7797 45.2881 35.6415 45.2881 23.1356C45.2881 10.6297 35.15 0.491524 22.6441 0.491524C10.1381 0.491524 0 10.6297 0 23.1356C0 35.6415 10.1381 45.7797 22.6441 45.7797Z" fill="#F74874"/>
<path d="M31.5084 18.4915V33.2712C31.5084 33.8983 31.2592 34.4997 30.8158 34.943C30.3724 35.3865 29.771 35.6356 29.1439 35.6356H16.9491C16.6378 35.6367 16.3294 35.5764 16.0416 35.458C15.7537 35.3397 15.4921 35.1658 15.2717 34.9461C15.0512 34.7264 14.8763 34.4654 14.7569 34.178C14.6375 33.8906 14.5761 33.5824 14.5762 33.2712V13.0085C14.5806 12.3829 14.8329 11.7846 15.2776 11.3446C15.7224 10.9046 16.3234 10.6587 16.9491 10.661H25.6185C26.0146 10.6613 26.4044 10.7606 26.7523 10.9501C27.1001 11.1396 27.395 11.4131 27.6101 11.7458L31.1269 17.2288C31.3718 17.6048 31.5041 18.0429 31.5084 18.4915Z" fill="white"/>
<path d="M18.2625 22.5932H20.5252V24.9153H17.415V23.4407C17.415 23.2159 17.5044 23.0003 17.6633 22.8414C17.8222 22.6825 18.0378 22.5932 18.2625 22.5932Z" fill="#F74874"/>
<path d="M24.4915 22.5932H21.3813V24.9153H24.4915V22.5932Z" fill="#F74874"/>
<path d="M25.2798 22.5932H26.7544C26.9791 22.5932 27.1946 22.6825 27.3536 22.8414C27.5125 23.0003 27.6018 23.2159 27.6018 23.4407V24.9153H25.2798V22.5932Z" fill="#F74874"/>
<path d="M27.6015 26.0932H17.415V29.2034H27.6015V26.0932Z" fill="#F74874"/>
<path d="M17.415 30.3898H20.5252V32.6949H18.2625C18.0378 32.6949 17.8222 32.6056 17.6633 32.4467C17.5044 32.2878 17.415 32.0722 17.415 31.8475V30.3898Z" fill="#F74874"/>
<path d="M24.4915 30.3898H21.3813V32.7119H24.4915V30.3898Z" fill="#F74874"/>
<path d="M25.2798 30.3898H27.6018V31.8475C27.6018 32.0722 27.5125 32.2878 27.3536 32.4467C27.1946 32.6056 26.9791 32.6949 26.7544 32.6949H25.2798V30.3898Z" fill="#F74874"/>
<path d="M56.3554 5.41602L60.2286 17.591H60.3772L64.2582 5.41602H68.014L62.4898 21.4407H58.1237L52.5918 5.41602H56.3554ZM73.3308 5.41602V21.4407H69.9427V5.41602H73.3308ZM76.1182 21.4407V5.41602H82.4405C83.6507 5.41602 84.6835 5.63251 85.5388 6.06546C86.3998 6.4932 87.0541 7.10091 87.5032 7.88858C87.9566 8.67102 88.1837 9.59169 88.1837 10.6507C88.1837 11.7147 87.9541 12.6303 87.4948 13.397C87.0363 14.1586 86.371 14.7429 85.4998 15.1497C84.634 15.5566 83.5855 15.7601 82.3544 15.7601H78.1214V13.0371H81.8067C82.4536 13.0371 82.9908 12.9485 83.4186 12.7711C83.8463 12.5937 84.1645 12.3277 84.3732 11.973C84.5871 11.6183 84.694 11.1775 84.694 10.6507C84.694 10.1186 84.5871 9.67 84.3732 9.30483C84.1645 8.93966 83.8437 8.66322 83.4107 8.47542C82.983 8.28241 82.4431 8.18591 81.791 8.18591H79.5063V21.4407H76.1182ZM84.7719 14.1482L88.7549 21.4407H85.0151L81.1182 14.1482H84.7719ZM89.9676 8.20939V5.41602H103.129V8.20939H98.2227V21.4407H94.8736V8.20939H89.9676ZM115.194 5.41602H118.582V15.8226C118.582 16.9911 118.303 18.0136 117.745 18.8899C117.192 19.7663 116.418 20.4496 115.421 20.9399C114.424 21.425 113.264 21.6676 111.939 21.6676C110.609 21.6676 109.446 21.425 108.449 20.9399C107.453 20.4496 106.679 19.7663 106.125 18.8899C105.573 18.0136 105.296 16.9911 105.296 15.8226V5.41602H108.684V15.5331C108.684 16.1435 108.817 16.6859 109.083 17.1607C109.354 17.6353 109.735 18.0083 110.225 18.2796C110.716 18.5508 111.287 18.6864 111.939 18.6864C112.596 18.6864 113.168 18.5508 113.652 18.2796C114.143 18.0083 114.521 17.6353 114.787 17.1607C115.058 16.6859 115.194 16.1435 115.194 15.5331V5.41602ZM124.131 21.4407H120.501L126.033 5.41602H130.399L135.924 21.4407H132.292L128.279 9.07788H128.153L124.131 21.4407ZM123.905 15.1419H132.48V17.7866H123.905V15.1419ZM137.852 21.4407V5.41602H141.24V18.6473H148.11V21.4407H137.852ZM66.8638 24.9075V40.9322H63.9374L56.9658 30.8464H56.8484V40.9322H53.4604V24.9075H56.4337L63.3506 34.9856H63.4915V24.9075H66.8638ZM79.561 24.9075H82.9491V35.3142C82.9491 36.4826 82.67 37.5051 82.1119 38.3814C81.5589 39.2578 80.7843 39.9411 79.788 40.4314C78.7916 40.9165 77.631 41.1592 76.306 41.1592C74.9759 41.1592 73.8126 40.9165 72.8163 40.4314C71.82 39.9411 71.0454 39.2578 70.4924 38.3814C69.9395 37.5051 69.663 36.4826 69.663 35.3142V24.9075H73.051V35.0247C73.051 35.635 73.1841 36.1775 73.4501 36.6522C73.7214 37.1269 74.1021 37.4998 74.5925 37.7711C75.0828 38.0424 75.654 38.178 76.306 38.178C76.9633 38.178 77.5345 38.0424 78.0196 37.7711C78.5099 37.4998 78.8882 37.1269 79.1542 36.6522C79.4254 36.1775 79.561 35.635 79.561 35.0247V24.9075ZM85.7363 24.9075H89.9151L94.3278 35.6742H94.5159L98.9287 24.9075H103.107V40.9322H99.821V30.5021H99.688L95.5405 40.854H93.3032L89.1558 30.463H89.0227V40.9322H85.7363V24.9075Z" fill="white"/>
</g>
<defs>
<clipPath id="clip0">
<rect width="150" height="45.7627" fill="white" transform="translate(0 0.118641)"/>
</clipPath>
</defs>
</svg>
