<svg width="35" height="35" viewBox="0 0 35 35" fill="none" xmlns="http://www.w3.org/2000/svg">
<path d="M27.7083 11.6666L21.8749 17.5H26.2499C26.2499 22.3271 22.327 26.25 17.4999 26.25C16.027 26.25 14.627 25.8854 13.4166 25.2291L11.2874 27.3583C13.0812 28.4958 15.2103 29.1666 17.4999 29.1666C23.9458 29.1666 29.1666 23.9458 29.1666 17.5H33.5416L27.7083 11.6666ZM8.74992 17.5C8.74992 12.6729 12.6728 8.74998 17.4999 8.74998C18.9728 8.74998 20.3728 9.11456 21.5833 9.77081L23.7124 7.64165C21.9187 6.50415 19.7895 5.83331 17.4999 5.83331C11.0541 5.83331 5.83325 11.0541 5.83325 17.5H1.45825L7.29158 23.3333L13.1249 17.5H8.74992Z" fill="#383838"/>
</svg>
