  <svg
      width="12"
      height="12"
      viewBox="0 0 10 10"
      fill="none"
      xmlns="http://www.w3.org/2000/svg"
      
    >
      <path
        fillRule="evenodd"
        clipRule="evenodd"
        d="M7.86079 9.05316L5.00059 6.19221L2.13956 9.05324C1.81029 9.38251 1.27643 9.38251 0.947151 9.05324C0.617877 8.72397 0.617877 8.19011 0.947149 7.86083L3.80815 4.99977L0.9472 2.13958C0.617927 1.8103 0.6179 1.27642 0.947172 0.947149C1.27644 0.617877 1.8103 0.617878 2.13957 0.947148L5.0002 3.80773L7.86083 0.947166C8.1901 0.617894 8.72396 0.617892 9.05324 0.947166C9.38251 1.27644 9.38251 1.8103 9.05324 2.13957L6.19264 5.00017L9.05322 7.86079C9.38249 8.19006 9.38249 8.72391 9.05322 9.05319C8.72395 9.38246 8.19007 9.38243 7.86079 9.05316Z"
        fill="#232628"
      />
    </svg>