<svg width="26" height="26" viewBox="0 0 26 26" fill="none" xmlns="http://www.w3.org/2000/svg">
<path d="M22.0471 16.915C21.5494 16.095 20.2359 15.7331 19.4972 15.5903C18.149 15.3298 16.4115 15.3496 15.5693 15.9812C15.2921 16.1893 15.154 16.6192 15.1218 17.3753C15.1178 17.4716 15.1156 17.568 15.1151 17.6644C13.6842 17.1117 12.3634 16.2873 11.236 15.243L10.7409 14.7507C9.69221 13.6313 8.86387 12.3197 8.30837 10.8992C8.40125 10.8987 8.49931 10.8968 8.59976 10.8926C9.35853 10.8606 9.79002 10.7235 9.99883 10.4483C10.6313 9.61461 10.6542 7.89323 10.3963 6.55713C10.2534 5.81618 9.8896 4.49891 9.06004 4.00105C8.23474 3.50573 6.95917 3.62522 6.44902 3.69967C5.39658 3.85308 4.52101 4.22495 4.10679 4.69427C3.74583 5.10331 3.61903 6.27062 3.5813 6.75345C3.58029 6.76614 3.57993 6.77919 3.58013 6.79194C3.64224 10.7248 5.15511 14.4803 7.83997 17.3653C7.84357 17.3691 7.84723 17.3745 7.85094 17.3782L8.60362 18.1298C8.60732 18.1335 8.61108 18.1436 8.61499 18.147C11.5158 20.8162 15.2906 22.2931 19.2444 22.3947H19.2507C19.2611 22.3947 19.2716 22.3816 19.2821 22.3808C19.767 22.3433 20.9393 22.2047 21.3499 21.8464C21.8223 21.4343 22.1965 20.5628 22.351 19.5152C22.4258 19.0073 22.5461 17.7371 22.0471 16.915ZM21.5471 19.3967C21.4257 20.2199 21.1318 20.9584 20.8161 21.2339C20.6746 21.3505 19.9402 21.5003 19.238 21.5565C15.4935 21.4934 11.9193 20.0681 9.17094 17.5417L8.42954 16.8044C5.88936 14.0722 4.45647 10.5195 4.39299 6.79742C4.4491 6.10096 4.59931 5.37225 4.71616 5.23169C4.99388 4.91704 5.73742 4.62444 6.56643 4.50358C7.43595 4.37678 8.23139 4.45113 8.64211 4.69767C9.03841 4.93553 9.405 5.707 9.59878 6.7111C9.85309 8.02887 9.75021 9.41388 9.36026 9.94586C9.20279 10.0565 8.4888 10.1157 7.8191 10.0757C7.74396 10.0566 7.66492 10.0595 7.59139 10.084C7.52699 10.1055 7.46902 10.1428 7.4228 10.1925C7.35585 10.261 7.31538 10.3511 7.30859 10.4467C7.30256 10.5292 7.32198 10.6116 7.36425 10.6826C7.92589 12.3245 8.82436 13.8451 9.99299 15.1377C10.0068 15.1598 10.023 15.1808 10.0414 15.2006C10.1618 15.3289 10.2848 15.4547 10.4103 15.578C10.5345 15.7031 10.6613 15.8256 10.7906 15.9455C10.8105 15.9638 10.8316 15.9799 10.8538 15.9936C12.1533 17.1551 13.682 18.0484 15.3323 18.6067C15.4034 18.6488 15.4857 18.6681 15.5681 18.6618C15.6644 18.6549 15.755 18.6138 15.8235 18.5459C15.8303 18.5395 15.8364 18.5325 15.8428 18.5257L15.8481 18.5197C15.8852 18.4786 15.9135 18.4304 15.9311 18.3779C15.9554 18.3045 15.9581 18.2257 15.9389 18.1508C15.8989 17.4866 15.9581 16.779 16.0687 16.6227C16.6081 16.2317 18.01 16.1305 19.3432 16.3881C20.3451 16.5818 21.1152 16.9452 21.3527 17.3366C21.5999 17.744 21.6744 18.5334 21.5471 19.3967Z" fill="black"/>
</svg>
