<svg width="40" height="40" viewBox="0 0 40 40" fill="none" xmlns="http://www.w3.org/2000/svg">
<g clip-path="url(#clip0)">
<path d="M35.6042 24.5962C35.6042 24.5962 38.8382 27.7902 39.6382 29.2682C39.6602 29.3002 39.6702 29.3242 39.6742 29.3382C40.0002 29.8842 40.0802 30.3122 39.9202 30.6282C39.6502 31.1502 38.7362 31.4122 38.4262 31.4342C38.4262 31.4342 32.8702 31.4342 32.7102 31.4342C32.3122 31.4342 31.4842 31.3302 30.4762 30.6342C29.7062 30.0962 28.9402 29.2102 28.1982 28.3442C27.0902 27.0582 26.1322 25.9422 25.1622 25.9422C25.0382 25.9422 24.9182 25.9622 24.8022 26.0022C24.0682 26.2342 23.1362 27.2802 23.1362 30.0662C23.1362 30.9382 22.4482 31.4342 21.9662 31.4342C21.9662 31.4342 19.4702 31.4342 19.3482 31.4342C18.4562 31.4342 13.8122 31.1222 9.69418 26.7802C4.64818 21.4642 0.11618 10.8002 0.0721801 10.7062C-0.20982 10.0162 0.38218 9.64016 1.02218 9.64016H6.79418C7.56818 9.64016 7.82018 10.1082 7.99618 10.5282C8.20018 11.0102 8.95618 12.9382 10.1962 15.1042C12.2042 18.6282 13.4382 20.0622 14.4242 20.0622C14.6102 20.0622 14.7862 20.0162 14.9522 19.9222C16.2402 19.2142 16.0002 14.6142 15.9402 13.6662C15.9402 13.4822 15.9382 11.6122 15.2782 10.7082C14.8062 10.0602 14.0022 9.80816 13.5162 9.71616C13.6462 9.52816 13.9222 9.24016 14.2762 9.07016C15.1582 8.63016 16.7522 8.56616 18.3342 8.56616H19.2122C20.9282 8.59016 21.3722 8.70016 21.9962 8.85816C23.2522 9.15816 23.2762 9.97216 23.1662 12.7442C23.1342 13.5362 23.1002 14.4282 23.1002 15.4782C23.1002 15.7022 23.0902 15.9522 23.0902 16.2062C23.0522 17.6282 23.0022 19.2302 24.0062 19.8882C24.1342 19.9682 24.2842 20.0122 24.4402 20.0122C24.7882 20.0122 25.8302 20.0122 28.6562 15.1622C29.8962 13.0202 30.8562 10.4942 30.9222 10.3042C30.9782 10.1982 31.1462 9.90016 31.3502 9.78016C31.5062 9.68416 31.7142 9.66816 31.8222 9.66816H38.6122C39.3522 9.66816 39.8542 9.78016 39.9522 10.0602C40.1162 10.5142 39.9202 11.9002 36.8202 16.0922C36.2982 16.7902 35.8402 17.3942 35.4382 17.9222C32.6282 21.6102 32.6282 21.7962 35.6042 24.5962V24.5962Z" fill="white"/>
</g>
<defs>
<clipPath id="clip0">
<rect width="40" height="40" fill="white"/>
</clipPath>
</defs>
</svg>
